<svg version="1.1" xmlns="http://www.w3.org/2000/svg" viewBox="0 0 1259.655539772727 1502.3843160764534" width="2519.311079545454" height="3004.768632152907">
  <!-- svg-source:excalidraw -->
  
  <defs>
    <style>
      @font-face {
        font-family: "Virgil";
        src: url("https://excalidraw.com/Virgil.woff2");
      }
      @font-face {
        font-family: "Cascadia";
        src: url("https://excalidraw.com/Cascadia.woff2");
      }
    </style>
  </defs>
  <rect x="0" y="0" width="1259.655539772727" height="1502.3843160764534" fill="#ffffff"></rect><g stroke-linecap="round" transform="translate(402.0493607954546 115.69683584266994) rotate(0 95.5640980113638 57.517412879676016)"><path d="M1.55 -1.97 C39.69 2.89, 76.87 0.5, 191.01 -0.57 M-0.68 -0.19 C70.11 0.19, 137.9 -0.45, 191.25 0.76 M189.32 -0.13 C188.87 26.2, 190.64 50.73, 189.17 114.17 M191.21 -0.27 C189.69 32.3, 190.11 64.99, 191.47 115.73 M191.33 115.41 C122.04 114.94, 57.51 114.61, 1.2 113.3 M191.35 115.92 C126.98 112.58, 61.96 112.64, -0.57 115.72 M0.61 113.16 C1.48 71.21, -0.45 25.62, -1.77 1.18 M0.09 115.09 C0.42 68.96, -1.53 24.47, -0.63 -0.62" stroke="#000000" stroke-width="1" fill="none"></path></g><g transform="translate(456.51800992129915 158.80929372971536) rotate(0 40.29089744602817 17.16093780108602)"><text x="0" y="24.321875602172042" font-family="Virgil, Segoe UI Emoji" font-size="26.860598297352087px" fill="#000000" text-anchor="start" style="white-space: pre;" direction="ltr">Circom</text></g><g transform="translate(443.5921948631187 10) rotate(0 42.52928063747413 17.16093780108602)"><text x="0" y="24.321875602172042" font-family="Virgil, Segoe UI Emoji" font-size="26.860598297352052px" fill="#000000" text-anchor="start" style="white-space: pre;" direction="ltr">Circuit</text></g><g stroke-linecap="round"><g transform="translate(495.2574032509117 52.68940079025498) rotate(1.8527662918464587 1.1903583053838815 26.736130696048065)"><path d="M0.93 -0.45 C1.38 8.72, 2.29 44.84, 2.42 54.09 M-0.04 -1.73 C0.25 7.66, 0.68 45.52, 1.38 55.2" stroke="#000000" stroke-width="1" fill="none"></path></g><g transform="translate(495.2574032509117 52.68940079025498) rotate(1.8527662918464587 1.1903583053838815 26.736130696048065)"><path d="M-9.73 29.45 C-7.63 35.26, -3.2 44.65, 2.82 55.75 M-9.37 29.14 C-5.99 34.49, -5.17 40.75, 1.05 55.36" stroke="#000000" stroke-width="1" fill="none"></path></g><g transform="translate(495.2574032509117 52.68940079025498) rotate(1.8527662918464587 1.1903583053838815 26.736130696048065)"><path d="M9.05 28.74 C5.9 34.9, 5.1 44.49, 2.82 55.75 M9.41 28.43 C8.93 33.78, 5.88 40.18, 1.05 55.36" stroke="#000000" stroke-width="1" fill="none"></path></g></g><g transform="translate(295.48522125513375 368.113059791486) rotate(0 65.07810608757563 14.025453898184423)"><text x="0" y="19.050907796368815" font-family="Virgil, Segoe UI Emoji" font-size="22.440726237095042px" fill="#000000" text-anchor="start" style="white-space: pre;" direction="ltr">circuit.wasm</text></g><g stroke-linecap="round"><g transform="translate(352.20381764653007 176.7823792342802) rotate(0 10.033788387615175 67.20744784090633)"><path d="M31.2 -0.64 C24.72 1.03, -0.7 -11.84, -7.41 11.13 C-14.11 34.09, -8.47 116.1, -9.03 137.16 M30.14 1.64 C23.47 3.51, -1.41 -12.68, -7.98 9.59 C-14.55 31.86, -8.78 114.27, -9.26 135.26" stroke="#000000" stroke-width="1" fill="none"></path></g><g transform="translate(352.20381764653007 176.7823792342802) rotate(0 10.033788387615175 67.20744784090633)"><path d="M-21.24 108.5 C-13.87 119.71, -10.09 127.64, -7.36 134.74 M-20.67 107.81 C-17.82 114.05, -15.1 121.48, -9.81 134.66" stroke="#000000" stroke-width="1" fill="none"></path></g><g transform="translate(352.20381764653007 176.7823792342802) rotate(0 10.033788387615175 67.20744784090633)"><path d="M-0.73 108.02 C-1.26 119.54, -5.4 127.66, -7.36 134.74 M-0.16 107.33 C-2.63 113.79, -5.25 121.36, -9.81 134.66" stroke="#000000" stroke-width="1" fill="none"></path></g></g><g transform="translate(47.86221590909099 375.7305962611129) rotate(0 54.81740056818177 14.128196022727252)"><text x="0" y="19.256392045454533" font-family="Virgil, Segoe UI Emoji" font-size="22.605113636363622px" fill="#000000" text-anchor="start" style="white-space: pre;" direction="ltr">Input.json</text></g><g transform="translate(10 406.1787496702039) rotate(0 133 30)"><text x="0" y="14" font-family="Virgil, Segoe UI Emoji" font-size="16px" fill="#364fc7" text-anchor="start" style="white-space: pre;" direction="ltr">Only inputs to the circuit</text><text x="0" y="34" font-family="Virgil, Segoe UI Emoji" font-size="16px" fill="#364fc7" text-anchor="start" style="white-space: pre;" direction="ltr">need to be given, intermediate</text><text x="0" y="54" font-family="Virgil, Segoe UI Emoji" font-size="16px" fill="#364fc7" text-anchor="start" style="white-space: pre;" direction="ltr">signals &amp; output will be computed</text></g><g stroke-linecap="round" transform="translate(280.12073863636317 328.5303121702037) rotate(0 82.12002840909088 52.72194602272725)"><path d="M118.97 5.69 C129.78 8.2, 140.29 14.69, 147.6 20.63 C154.91 26.57, 160.27 33.89, 162.82 41.3 C165.36 48.71, 165.8 57.72, 162.89 65.09 C159.98 72.47, 153.11 79.67, 145.34 85.56 C137.57 91.45, 127.14 97.27, 116.3 100.43 C105.45 103.58, 91.92 104.68, 80.28 104.5 C68.64 104.32, 56.89 102.5, 46.46 99.34 C36.03 96.18, 25.02 91.5, 17.69 85.54 C10.36 79.59, 5.04 71.29, 2.48 63.61 C-0.08 55.93, -0.34 46.94, 2.33 39.46 C5.01 31.98, 11.16 24.32, 18.52 18.71 C25.88 13.1, 35.59 8.87, 46.5 5.82 C57.41 2.76, 71.43 0.38, 83.99 0.37 C96.56 0.36, 115.28 4.35, 121.89 5.75 C128.5 7.15, 124.15 7.9, 123.66 8.74 M60.86 2.18 C71.77 -0.44, 86.9 -0.68, 98.81 0.97 C110.71 2.62, 123.08 7.55, 132.3 12.07 C141.51 16.59, 148.85 21.49, 154.11 28.1 C159.38 34.71, 163.63 44.25, 163.9 51.73 C164.16 59.21, 160.77 66.07, 155.71 72.99 C150.65 79.91, 142.21 88.29, 133.53 93.26 C124.85 98.24, 115.08 100.93, 103.62 102.83 C92.17 104.73, 76.6 106.06, 64.8 104.67 C52.99 103.29, 42.09 98.97, 32.78 94.54 C23.47 90.1, 14.64 84.98, 8.93 78.04 C3.23 71.11, -1.13 60.69, -1.42 52.93 C-1.71 45.17, 2 38.09, 7.2 31.46 C12.39 24.83, 20.44 18.22, 29.75 13.13 C39.07 8.03, 57.49 2.63, 63.09 0.87 C68.68 -0.88, 63.32 1.78, 63.31 2.6" stroke="#000000" stroke-width="1" fill="none"></path></g><g stroke-linecap="round" transform="translate(156.4311079545455 533.7540337611129) rotate(0 113.82812499999994 46.931818181818244)"><path d="M1.28 -0.08 C78.87 -0.14, 159.61 1.25, 226.06 -1.03 M-0.8 0.68 C65.22 -0.16, 129.91 -1.31, 228.04 0.74 M227.11 -0.72 C227.15 24.9, 227.04 53.76, 227.35 95.4 M226.96 0.24 C227.36 33.75, 227.74 68.26, 228.15 93.77 M228.98 94.75 C141.96 94.87, 56.11 97.37, 0.66 94.58 M228.45 93.65 C168.96 94.85, 110.66 96.06, -0.61 93.19 M0.19 94.84 C1.08 73.82, 0.46 50.35, -0.27 1.42 M0.53 93.39 C0.99 74.64, 0.86 56.4, -0.33 -0.96" stroke="#000000" stroke-width="1" fill="none"></path></g><g transform="translate(173.11789772727275 567.7199428520219) rotate(0 98 12.5)"><text x="0" y="18" font-family="Virgil, Segoe UI Emoji" font-size="20px" fill="#000000" text-anchor="start" style="white-space: pre;" direction="ltr">generate_witness.js</text></g><g stroke-linecap="round"><g transform="translate(121.2748579545455 475.92377807929466) rotate(0 40.04645102731371 21.77104311634531)"><path d="M0.66 0.13 C14.22 7.23, 67.44 35.85, 80.55 42.97 M-0.46 -0.85 C13.1 6.41, 66.96 36.93, 80.11 44.4" stroke="#000000" stroke-width="1" fill="none"></path></g><g transform="translate(121.2748579545455 475.92377807929466) rotate(0 40.04645102731371 21.77104311634531)"><path d="M50.73 41.04 C57.03 40, 63.66 43.41, 80.88 45.22 M49.53 39.92 C57.63 39.71, 63.99 42.09, 79.78 44.97" stroke="#000000" stroke-width="1" fill="none"></path></g><g transform="translate(121.2748579545455 475.92377807929466) rotate(0 40.04645102731371 21.77104311634531)"><path d="M60.85 23.18 C64.86 26.34, 69.14 33.89, 80.88 45.22 M59.64 22.06 C65.35 25.89, 69.42 32.31, 79.78 44.97" stroke="#000000" stroke-width="1" fill="none"></path></g></g><g stroke-linecap="round"><g transform="translate(349.8117897727268 443.27463035202214) rotate(0 -34.909125368952516 38.642951661732695)"><path d="M-1.05 0.03 C-12.67 13.06, -58.29 64.04, -69.82 77.16 M0.6 -1 C-11.11 12.25, -58.5 65.32, -70.42 78.29" stroke="#000000" stroke-width="1" fill="none"></path></g><g transform="translate(349.8117897727268 443.27463035202214) rotate(0 -34.909125368952516 38.642951661732695)"><path d="M-59.08 51.62 C-63.95 58.91, -64.63 66.13, -68.61 76.51 M-58.44 49.8 C-64.25 60.34, -68.2 70.29, -69.82 78.23" stroke="#000000" stroke-width="1" fill="none"></path></g><g transform="translate(349.8117897727268 443.27463035202214) rotate(0 -34.909125368952516 38.642951661732695)"><path d="M-43.85 65.38 C-53.05 68.53, -58.16 71.74, -68.61 76.51 M-43.21 63.56 C-54.41 69.3, -63.8 74.34, -69.82 78.23" stroke="#000000" stroke-width="1" fill="none"></path></g></g><g stroke-linecap="round"><g transform="translate(321.2251420454538 220.26681785202192) rotate(0 -60.3787361379338 151.10811998583375)"><path d="M0.69 0.82 C-19.21 17.89, -103.4 53.53, -118.31 103.63 C-133.22 153.72, -93.82 268.51, -88.77 301.4" stroke="#000000" stroke-width="1.5" fill="none" stroke-dasharray="1.5 7"></path></g><g transform="translate(321.2251420454538 220.26681785202192) rotate(0 -60.3787361379338 151.10811998583375)"><path d="M-103.94 276.42 C-100.13 285.57, -91.56 296.62, -88.91 302.92" stroke="#000000" stroke-width="1.5" fill="none" stroke-dasharray="1.5 5"></path></g><g transform="translate(321.2251420454538 220.26681785202192) rotate(0 -60.3787361379338 151.10811998583375)"><path d="M-83.99 271.64 C-87.93 282.78, -87.16 295.7, -88.91 302.92" stroke="#000000" stroke-width="1.5" fill="none" stroke-dasharray="1.5 5"></path></g></g><g transform="translate(216.36008522727275 701.7142610338403) rotate(0 55 12.5)"><text x="0" y="18" font-family="Virgil, Segoe UI Emoji" font-size="20px" fill="#000000" text-anchor="start" style="white-space: pre;" direction="ltr">circuit.wtns</text></g><g stroke-linecap="round"><g transform="translate(272.0454545454537 642.3229258065676) rotate(0 0.6035732898861284 24.098506942004462)"><path d="M-0.53 -0.64 C-0.08 7.46, 1.55 39.51, 1.73 47.38 M1.4 1.65 C1.87 10.04, 1.64 41.2, 1.37 48.83" stroke="#000000" stroke-width="1" fill="none"></path></g><g transform="translate(272.0454545454537 642.3229258065676) rotate(0 0.6035732898861284 24.098506942004462)"><path d="M-7.42 28.19 C-5.15 31.24, -4.73 35.58, 0.14 48.32 M-6.69 26.73 C-4.15 31.96, -3.31 35.6, 1.32 49.5" stroke="#000000" stroke-width="1" fill="none"></path></g><g transform="translate(272.0454545454537 642.3229258065676) rotate(0 0.6035732898861284 24.098506942004462)"><path d="M8.84 28.49 C7.51 31.4, 4.34 35.67, 0.14 48.32 M9.57 27.02 C8.66 32.05, 6.04 35.64, 1.32 49.5" stroke="#000000" stroke-width="1" fill="none"></path></g></g><g stroke-linecap="round" transform="translate(593.6931818181818 334.9365621702037) rotate(0 83.60973011363643 47.279829545454504)"><path d="M82.29 -0.56 C93.73 -1.36, 108.39 1.76, 119.35 4.69 C130.31 7.61, 140.54 11.79, 148.04 17 C155.55 22.2, 161.58 29.18, 164.39 35.94 C167.21 42.71, 167.43 50.81, 164.93 57.59 C162.43 64.38, 156.9 71.3, 149.38 76.64 C141.86 81.98, 130.7 86.55, 119.82 89.63 C108.94 92.71, 96.1 94.96, 84.1 95.13 C72.1 95.3, 58.67 93.79, 47.82 90.63 C36.97 87.47, 26.69 81.52, 19.01 76.17 C11.34 70.81, 4.74 65.19, 1.78 58.52 C-1.17 51.84, -1.44 42.75, 1.29 36.11 C4.02 29.47, 10.6 24.06, 18.16 18.7 C25.72 13.34, 33.69 7.12, 46.63 3.94 C59.57 0.76, 85.41 -0.12, 95.79 -0.39 C106.17 -0.66, 109.1 1.34, 108.91 2.34 M70.46 0.71 C81.32 -1.32, 94.38 -0.74, 106.11 1.12 C117.83 2.98, 131.75 7, 140.83 11.86 C149.91 16.73, 155.97 23.86, 160.57 30.3 C165.17 36.74, 168.92 43.62, 168.42 50.49 C167.91 57.35, 163.93 65.52, 157.53 71.5 C151.13 77.49, 140.34 82.72, 130.01 86.41 C119.69 90.1, 107.38 92.75, 95.57 93.67 C83.77 94.58, 70.47 93.87, 59.17 91.9 C47.86 89.93, 36.54 86.09, 27.75 81.84 C18.97 77.59, 11.18 72.88, 6.44 66.4 C1.71 59.92, -1.14 50.06, -0.66 42.95 C-0.18 35.84, 3.06 29.27, 9.31 23.74 C15.57 18.2, 26.89 13.35, 36.88 9.72 C46.86 6.08, 63.63 3.21, 69.23 1.93 C74.82 0.66, 69.88 1.65, 70.44 2.08" stroke="#000000" stroke-width="1" fill="none"></path></g><g transform="translate(631.8430397727271 370.4855678520218) rotate(0 51 12.5)"><text x="0" y="18" font-family="Virgil, Segoe UI Emoji" font-size="20px" fill="#000000" text-anchor="start" style="white-space: pre;" direction="ltr">circuit.r1cs</text></g><g stroke-linecap="round" transform="translate(569.7727272727273 530.1886928520219) rotate(0 151.63174715909093 48.16938920454544)"><path d="M-0.24 0.69 C111.78 2.23, 224.03 0.81, 302.18 -0.34 M-0.23 -0.18 C67.4 0.24, 135.97 0.25, 303.12 -0.54 M301.71 1.81 C304.11 34.49, 301.96 64.73, 303.38 94.92 M302.7 0.79 C302.85 23.76, 303.2 45.89, 304.01 96.96 M302.14 94.91 C212.7 96.7, 122.03 97.99, -0.06 95.26 M302.71 96.13 C202.1 94.44, 101.78 94.16, 0.7 96.51 M1.08 96.18 C-0.97 61.63, 0.82 29.77, 1.64 0.11 M-0.4 95.94 C-0.63 75.65, -0.03 55.32, 0.03 -0.56" stroke="#000000" stroke-width="1" fill="none"></path></g><g transform="translate(648.2812499999999 566.7923860338401) rotate(0 74.5 12.5)"><text x="0" y="18" font-family="Virgil, Segoe UI Emoji" font-size="20px" fill="#000000" text-anchor="start" style="white-space: pre;" direction="ltr">snarkjs groth16</text></g><g transform="translate(902.9296874999997 365.5743462611127) rotate(0 110 12.5)"><text x="0" y="18" font-family="Virgil, Segoe UI Emoji" font-size="20px" fill="#000000" text-anchor="start" style="white-space: pre;" direction="ltr">ptau file from phase 1</text></g><g stroke-linecap="round"><g transform="translate(673.8032670454546 445.7888348974763) rotate(0 13.178302147273257 36.660779903848606)"><path d="M-1.19 -0.99 C3.59 11.35, 22.79 60.67, 27.55 72.9 M0.38 1.1 C5.1 13.73, 22.2 62.28, 26.54 74.31" stroke="#000000" stroke-width="1" fill="none"></path></g><g transform="translate(673.8032670454546 445.7888348974763) rotate(0 13.178302147273257 36.660779903848606)"><path d="M5.77 51.01 C10.66 55.58, 13.69 61.42, 26.15 73.44 M7.2 50.78 C15.31 58.68, 20.1 66.59, 26.31 74.81" stroke="#000000" stroke-width="1" fill="none"></path></g><g transform="translate(673.8032670454546 445.7888348974763) rotate(0 13.178302147273257 36.660779903848606)"><path d="M25.1 44.12 C26.02 49.89, 25.13 57.13, 26.15 73.44 M26.53 43.89 C27.93 54.11, 25.95 64.43, 26.31 74.81" stroke="#000000" stroke-width="1" fill="none"></path></g></g><g stroke-linecap="round"><g transform="translate(948.9595170454546 399.0984939883854) rotate(0 -77.9313723936931 58.0474902201816)"><path d="M0.93 -0.01 C-24.95 19.43, -129.56 96.55, -155.78 116.15 M-0.04 -1.07 C-26.04 18.54, -131.15 97.74, -156.79 117.16" stroke="#000000" stroke-width="1" fill="none"></path></g><g transform="translate(948.9595170454546 399.0984939883854) rotate(0 -77.9313723936931 58.0474902201816)"><path d="M-140.5 91.77 C-146.47 97.37, -148.31 104.04, -156.64 115.63 M-140.32 92.91 C-146.43 100.31, -151.05 109.79, -156.08 117.28" stroke="#000000" stroke-width="1" fill="none"></path></g><g transform="translate(948.9595170454546 399.0984939883854) rotate(0 -77.9313723936931 58.0474902201816)"><path d="M-128.14 108.15 C-137.22 109.62, -142.27 112.05, -156.64 115.63 M-127.95 109.28 C-138.62 110.72, -147.69 114.32, -156.08 117.28" stroke="#000000" stroke-width="1" fill="none"></path></g></g><g transform="translate(681.4204545454546 704.0011928520219) rotate(0 54 12.5)"><text x="0" y="18" font-family="Virgil, Segoe UI Emoji" font-size="20px" fill="#000000" text-anchor="start" style="white-space: pre;" direction="ltr">circuit.zkey</text></g><g stroke-linecap="round"><g transform="translate(721.0511363636361 640.0111360338401) rotate(0 -0.12748003740784952 26.913242363380277)"><path d="M-0.97 0.3 C-0.92 9.55, 0.29 45.4, 0.45 54.41 M0.72 -0.58 C0.63 8.4, -0.02 43.77, -0.27 52.59" stroke="#000000" stroke-width="1" fill="none"></path></g><g transform="translate(721.0511363636361 640.0111360338401) rotate(0 -0.12748003740784952 26.913242363380277)"><path d="M-8.39 27.81 C-5.46 35.07, -2.82 44.39, 1.05 52.04 M-9.46 27.91 C-6.56 34.36, -3.89 39.98, 0.47 53.25" stroke="#000000" stroke-width="1" fill="none"></path></g><g transform="translate(721.0511363636361 640.0111360338401) rotate(0 -0.12748003740784952 26.913242363380277)"><path d="M10.01 28.23 C7.2 35.21, 4.07 44.4, 1.05 52.04 M8.95 28.33 C7.09 34.8, 5.01 40.32, 0.47 53.25" stroke="#000000" stroke-width="1" fill="none"></path></g></g><g stroke-linecap="round"><g transform="translate(612.4298249376967 206.60919410336913) rotate(0 34.01704527035798 55.96006377464491)"><path d="M0.64 0.33 C8.79 2.34, 38.05 -6.39, 49.36 12.3 C60.68 30.99, 65.4 95.54, 68.52 112.46 M-0.49 -0.54 C8.02 1.15, 40.3 -8.19, 51.73 10.78 C63.17 29.75, 65.33 95.89, 68.13 113.28" stroke="#000000" stroke-width="1" fill="none"></path></g><g transform="translate(612.4298249376967 206.60919410336913) rotate(0 34.01704527035798 55.96006377464491)"><path d="M55.67 85.16 C61.48 96.49, 62.39 104.91, 68.83 113.22 M54.87 85.91 C60.06 94.42, 63.42 103.19, 68.96 112.44" stroke="#000000" stroke-width="1" fill="none"></path></g><g transform="translate(612.4298249376967 206.60919410336913) rotate(0 34.01704527035798 55.96006377464491)"><path d="M76.09 83.12 C75 95.25, 69.02 104.36, 68.83 113.22 M75.29 83.88 C74.2 92.93, 71.28 102.32, 68.96 112.44" stroke="#000000" stroke-width="1" fill="none"></path></g></g><g stroke-linecap="round"><g transform="translate(743.6776782618255 742.1453689883854) rotate(0 20.706600737113376 21.69168441197411)"><path d="M-0.6 -1 C6.37 6.27, 34.78 36.91, 42.01 44.38" stroke="#000000" stroke-width="1.5" fill="none" stroke-dasharray="8 9"></path></g><g transform="translate(743.6776782618255 742.1453689883854) rotate(0 20.706600737113376 21.69168441197411)"><path d="M13.52 28.98 C23.76 34.74, 31.48 41.48, 43 45.78" stroke="#000000" stroke-width="1.5" fill="none"></path></g><g transform="translate(743.6776782618255 742.1453689883854) rotate(0 20.706600737113376 21.69168441197411)"><path d="M28.44 14.89 C34 25.08, 36.95 36.33, 43 45.78" stroke="#000000" stroke-width="1.5" fill="none"></path></g></g><g transform="translate(738.3487215909091 799.5338633065669) rotate(0 106.5 12.5)"><text x="0" y="18" font-family="Virgil, Segoe UI Emoji" font-size="20px" fill="#000000" text-anchor="start" style="white-space: pre;" direction="ltr">phase 2 contributions</text></g><g transform="translate(535.1526988636364 868.3122723974761) rotate(0 78 12.5)"><text x="0" y="18" font-family="Virgil, Segoe UI Emoji" font-size="20px" fill="#000000" text-anchor="start" style="white-space: pre;" direction="ltr">circuit.final.zkey</text></g><g stroke-linecap="round"><g transform="translate(775.4665557025452 833.7114201247489) rotate(0 -48.36619961703741 14.865001601624272)"><path d="M0.06 0.09 C-16.06 4.98, -80.68 24.9, -96.79 29.64" stroke="#000000" stroke-width="1.5" fill="none" stroke-dasharray="8 9"></path></g><g transform="translate(775.4665557025452 833.7114201247489) rotate(0 -48.36619961703741 14.865001601624272)"><path d="M-72.62 11.28 C-77.81 16.89, -86.76 20.31, -98.55 28.37" stroke="#000000" stroke-width="1.5" fill="none"></path></g><g transform="translate(775.4665557025452 833.7114201247489) rotate(0 -48.36619961703741 14.865001601624272)"><path d="M-66.69 30.93 C-73.66 30.78, -84.35 28.43, -98.55 28.37" stroke="#000000" stroke-width="1.5" fill="none"></path></g></g><g stroke-linecap="round" transform="translate(192.05255681818187 858.6552677809989) rotate(0 130.55575284090907 53.96306818181813)"><path d="M-0.76 1.21 C63.54 1.01, 130.91 0.31, 259.74 -1.12 M-0.78 0.51 C92.52 1.74, 186.63 1.45, 260.67 -0.78 M260.41 0.05 C258.99 31.95, 259.98 65.62, 260.41 109.69 M261.2 -0.51 C259.51 28.29, 259.56 56.44, 261.92 108.3 M259.59 109.27 C177.2 106.65, 96.11 108.12, -0.65 107.72 M261.85 108.68 C180.65 107.48, 100.39 107.43, 0.04 107.73 M0.6 107.45 C0.27 77.8, 0.65 50.75, 1.15 1.19 M-0.72 108.05 C0.92 75.54, 0.3 44.68, -0.61 -0.78" stroke="#000000" stroke-width="1" fill="none"></path></g><g transform="translate(216.17542613636374 902.6417734628171) rotate(0 105 12.5)"><text x="0" y="18" font-family="Virgil, Segoe UI Emoji" font-size="20px" fill="#000000" text-anchor="start" style="white-space: pre;" direction="ltr">snarkjs groth16 prove</text></g><g stroke-linecap="round"><g transform="translate(522.3131706204265 888.1060521580243) rotate(0 -28.299804662034262 9.22267996321682)"><path d="M0.99 0.34 C-8.44 3.3, -47.1 16.1, -56.56 18.98 M0.04 -0.53 C-9.55 2.62, -48.2 14.14, -57.58 17.34" stroke="#000000" stroke-width="1" fill="none"></path></g><g transform="translate(522.3131706204265 888.1060521580243) rotate(0 -28.299804662034262 9.22267996321682)"><path d="M-33.55 -0.95 C-39.36 5.85, -48.65 8.56, -57.77 18.61 M-34.41 -0.12 C-39.05 2.16, -44.57 7.34, -56.71 16.56" stroke="#000000" stroke-width="1" fill="none"></path></g><g transform="translate(522.3131706204265 888.1060521580243) rotate(0 -28.299804662034262 9.22267996321682)"><path d="M-27.43 18.37 C-35.26 19.47, -46.36 16.44, -57.77 18.61 M-28.3 19.19 C-34.17 17.54, -40.95 18.77, -56.71 16.56" stroke="#000000" stroke-width="1" fill="none"></path></g></g><g stroke-linecap="round"><g transform="translate(277.00994318181824 738.4706086900896) rotate(0 14.502235145969337 52.99681886440476)"><path d="M-0.49 -0.14 C4.06 17.36, 22.36 88.17, 27.3 105.83 M1.45 -1.26 C6.36 16.35, 24.93 89.21, 29.5 107.26" stroke="#000000" stroke-width="1" fill="none"></path></g><g transform="translate(277.00994318181824 738.4706086900896) rotate(0 14.502235145969337 52.99681886440476)"><path d="M12.36 80.84 C17.49 91.49, 22.54 98.41, 29.58 105.71 M12.35 81.97 C17.36 89.26, 22.34 96.28, 29.2 107.88" stroke="#000000" stroke-width="1" fill="none"></path></g><g transform="translate(277.00994318181824 738.4706086900896) rotate(0 14.502235145969337 52.99681886440476)"><path d="M32.25 75.77 C31.44 87.87, 30.5 96.31, 29.58 105.71 M32.23 76.91 C31.7 85.7, 31.13 94.13, 29.2 107.88" stroke="#000000" stroke-width="1" fill="none"></path></g></g><g transform="translate(165.37997159090912 1054.6020007355442) rotate(0 47 25)"><text x="0" y="18" font-family="Virgil, Segoe UI Emoji" font-size="20px" fill="#000000" text-anchor="start" style="white-space: pre;" direction="ltr">proof.json</text><text x="0" y="43" font-family="Virgil, Segoe UI Emoji" font-size="20px" fill="#000000" text-anchor="start" style="white-space: pre;" direction="ltr"></text></g><g transform="translate(146.43821022727275 1092.9862336900896) rotate(0 70.5 12.5)"><text x="0" y="18" font-family="Virgil, Segoe UI Emoji" font-size="20px" fill="#364fc7" text-anchor="start" style="white-space: pre;" direction="ltr">(actual proof)</text></g><g transform="translate(356.19318181818187 1052.2937620991806) rotate(0 47.5 12.5)"><text x="0" y="18" font-family="Virgil, Segoe UI Emoji" font-size="20px" fill="#000000" text-anchor="start" style="white-space: pre;" direction="ltr">public.json</text></g><g transform="translate(337.6669034090909 1088.3910632355442) rotate(0 106 37.5)"><text x="0" y="18" font-family="Virgil, Segoe UI Emoji" font-size="20px" fill="#364fc7" text-anchor="start" style="white-space: pre;" direction="ltr">(contains the values </text><text x="0" y="43" font-family="Virgil, Segoe UI Emoji" font-size="20px" fill="#364fc7" text-anchor="start" style="white-space: pre;" direction="ltr">of the public inputs </text><text x="0" y="68" font-family="Virgil, Segoe UI Emoji" font-size="20px" fill="#364fc7" text-anchor="start" style="white-space: pre;" direction="ltr">and outputs)</text></g><g stroke-linecap="round"><g transform="translate(267.3686079545455 985.2796907213399) rotate(0 -21.93106694921005 29.092507750099116)"><path d="M-0.69 0.74 C-8.08 10.36, -36.74 47.19, -43.96 56.79 M1.15 0.08 C-6.45 9.95, -37.33 48.68, -45.01 58.11" stroke="#000000" stroke-width="1" fill="none"></path></g><g transform="translate(267.3686079545455 985.2796907213399) rotate(0 -21.93106694921005 29.092507750099116)"><path d="M-34.11 29.39 C-39.46 38.61, -40.02 49.86, -43.66 59.52 M-34.8 28.91 C-37.25 36.88, -39.39 43, -44.6 57.74" stroke="#000000" stroke-width="1" fill="none"></path></g><g transform="translate(267.3686079545455 985.2796907213399) rotate(0 -21.93106694921005 29.092507750099116)"><path d="M-18.12 42.25 C-28.65 47.13, -34.48 54.14, -43.66 59.52 M-18.81 41.77 C-25.26 46.7, -31.31 49.68, -44.6 57.74" stroke="#000000" stroke-width="1" fill="none"></path></g></g><g stroke-linecap="round"><g transform="translate(355.3657670454546 984.0048327667944) rotate(0 13.28157682537352 28.60862663012267)"><path d="M-1.17 0.67 C3.47 10.25, 22.62 47.75, 27.73 57.24 M0.42 -0.02 C4.86 9.19, 21.67 45.97, 26.48 55.24" stroke="#000000" stroke-width="1" fill="none"></path></g><g transform="translate(355.3657670454546 984.0048327667944) rotate(0 13.28157682537352 28.60862663012267)"><path d="M6.08 33.39 C11.62 42.63, 18.53 47.32, 27.62 57.23 M5.39 35.03 C12.05 39.51, 17.15 46.9, 26.39 54.57" stroke="#000000" stroke-width="1" fill="none"></path></g><g transform="translate(355.3657670454546 984.0048327667944) rotate(0 13.28157682537352 28.60862663012267)"><path d="M24.55 24.45 C24.66 36.13, 26.15 43.45, 27.62 57.23 M23.86 26.09 C25.02 33.38, 24.62 43.43, 26.39 54.57" stroke="#000000" stroke-width="1" fill="none"></path></g></g><g stroke-linecap="round" transform="translate(605.1917613636366 956.5916136616804) rotate(0 196.883877840909 35.46164772727275)"><path d="M-0.44 -0.04 C125.02 -1.75, 249.62 -0.32, 394.46 0 M0.57 0.16 C135.2 -1.26, 270.59 -1.31, 393.6 -0.49 M392.73 -0.66 C392.56 17.29, 394.31 39.66, 392.39 72.54 M394.57 0.73 C393.6 21.8, 393.23 42.31, 393.98 70.99 M393.91 71.52 C289.34 69.05, 184.22 68.57, 1.05 69.83 M393.43 71.27 C301.5 70.39, 209.41 70.48, 0.13 70.69 M0.3 70.48 C-1.96 48.03, -0.81 24.02, 0.38 -1.77 M-0.78 71.26 C0 53.01, -1.09 36.81, 0.94 0.3" stroke="#000000" stroke-width="1" fill="none"></path></g><g transform="translate(615.5362215909096 979.5305341162259) rotate(0 184.5 12.5)"><text x="0" y="18" font-family="Virgil, Segoe UI Emoji" font-size="20px" fill="#000000" text-anchor="start" style="white-space: pre;" direction="ltr">snarkjs zkey export verificationkey ...</text></g><g stroke-linecap="round"><g transform="translate(697.7300773509156 902.6198010581602) rotate(0 52.45776436033225 22.246027246335643)"><path d="M-0.28 1.13 C17.28 8.14, 87.59 35.66, 105.19 42.67 M1.78 0.68 C19.14 7.78, 86.86 36.54, 103.97 43.82" stroke="#000000" stroke-width="1" fill="none"></path></g><g transform="translate(697.7300773509156 902.6198010581602) rotate(0 52.45776436033225 22.246027246335643)"><path d="M75.89 41.37 C81.4 42.17, 90.81 41.78, 102.23 42.7 M73.75 42.52 C83.73 42.26, 94.47 44.46, 103.45 44.16" stroke="#000000" stroke-width="1" fill="none"></path></g><g transform="translate(697.7300773509156 902.6198010581602) rotate(0 52.45776436033225 22.246027246335643)"><path d="M83.91 22.48 C87.21 28.7, 94.31 33.74, 102.23 42.7 M81.77 23.63 C88.85 30.04, 96.74 38.96, 103.45 44.16" stroke="#000000" stroke-width="1" fill="none"></path></g></g><g transform="translate(708.3806818181816 1105.9674126673624) rotate(0 94 12.5)"><text x="0" y="18" font-family="Virgil, Segoe UI Emoji" font-size="20px" fill="#000000" text-anchor="start" style="white-space: pre;" direction="ltr">verification.key.json</text></g><g stroke-linecap="round"><g transform="translate(794.6409066794632 1041.5405660764534) rotate(0 0.44563228484992123 27.189842035253946)"><path d="M-0.92 -0.33 C-1.02 9.1, -0.54 46.74, -0.36 55.92 M0.8 -1.54 C1.03 7.55, 2.06 44.4, 1.78 53.92" stroke="#000000" stroke-width="1" fill="none"></path></g><g transform="translate(794.6409066794632 1041.5405660764534) rotate(0 0.44563228484992123 27.189842035253946)"><path d="M-8.37 25.97 C-4.5 35.36, -3.34 45.19, 2.54 53.71 M-8.77 26.89 C-3.43 38.44, 0.25 46.72, 2.05 54.42" stroke="#000000" stroke-width="1" fill="none"></path></g><g transform="translate(794.6409066794632 1041.5405660764534) rotate(0 0.44563228484992123 27.189842035253946)"><path d="M10.68 25.9 C8.43 35.17, 3.47 45.03, 2.54 53.71 M10.28 26.82 C8.44 38.5, 4.94 46.8, 2.05 54.42" stroke="#000000" stroke-width="1" fill="none"></path></g></g><g stroke-linecap="round" transform="translate(479.8011363636364 1208.933588093499) rotate(0 154.75319602272714 31.509232954545382)"><path d="M1.33 1.07 C66.35 0.52, 130.2 0.52, 308.92 -1.22 M-0.38 -0.27 C69.89 -1.26, 140.48 -1.01, 309.98 0.13 M309.76 0.42 C311.48 21.13, 309.45 44.78, 307.95 62.63 M308.65 0.63 C309.46 24.14, 308.96 46.08, 308.61 63.08 M310.9 63.18 C192.7 62.35, 76.54 62.48, -1.23 63.42 M310.07 62.79 C192.27 64.55, 75.54 64.76, -0.25 63.12 M0.99 64.56 C1.43 49.14, 1.31 35.16, -0.28 1.72 M-0.11 63.83 C0.13 39.61, 0.05 15.76, -0.42 -0.98" stroke="#000000" stroke-width="1" fill="none"></path></g><g transform="translate(508.9098011363636 1228.0053210480444) rotate(0 119.5 12.5)"><text x="0" y="18" font-family="Virgil, Segoe UI Emoji" font-size="20px" fill="#000000" text-anchor="start" style="white-space: pre;" direction="ltr">snarkjs groth16 verify ...</text></g><g stroke-linecap="round"><g transform="translate(462.5674715909091 1067.371088093499) rotate(0 66.3579456682038 63.314123242462756)"><path d="M0.79 -1.1 C19.48 6.5, 90.51 25.42, 112.54 46.69 C134.57 67.96, 129.68 113.32, 132.97 126.51 M-0.26 0.93 C18.78 9.27, 92.68 27.18, 114.79 48.31 C136.89 69.45, 129.45 114.7, 132.37 127.73" stroke="#000000" stroke-width="1" fill="none"></path></g><g transform="translate(462.5674715909091 1067.371088093499) rotate(0 66.3579456682038 63.314123242462756)"><path d="M118.92 98.58 C125.13 109.66, 128.38 117.67, 130.94 127.43 M121.01 99.48 C125.58 110.05, 129.65 121.66, 131.85 127.23" stroke="#000000" stroke-width="1" fill="none"></path></g><g transform="translate(462.5674715909091 1067.371088093499) rotate(0 66.3579456682038 63.314123242462756)"><path d="M139.42 97.59 C138.86 109.14, 135.34 117.47, 130.94 127.43 M141.51 98.49 C138.02 109.4, 134.03 121.4, 131.85 127.23" stroke="#000000" stroke-width="1" fill="none"></path></g></g><g stroke-linecap="round"><g transform="translate(273.4517045454546 1074.3100085480444) rotate(0 99.31464376285834 75.23999899981891)"><path d="M0.38 -0.07 C9.53 22.55, 22.28 112.07, 55.47 136.96 C88.66 161.85, 175.64 147.11, 199.51 149.27 M-0.88 -1.16 C8.6 22.15, 24.48 113.58, 57.78 138.3 C91.08 163.01, 175.46 145.54, 198.94 147.14" stroke="#000000" stroke-width="1" fill="none"></path></g><g transform="translate(273.4517045454546 1074.3100085480444) rotate(0 99.31464376285834 75.23999899981891)"><path d="M171.28 157.78 C180.23 155.44, 191.12 149.89, 200.69 146.21 M170.61 159.4 C180.65 156, 191.66 151.68, 198.28 147.48" stroke="#000000" stroke-width="1" fill="none"></path></g><g transform="translate(273.4517045454546 1074.3100085480444) rotate(0 99.31464376285834 75.23999899981891)"><path d="M170.06 137.29 C179.63 142.08, 190.96 143.65, 200.69 146.21 M169.39 138.91 C179.72 142.67, 191.15 145.5, 198.28 147.48" stroke="#000000" stroke-width="1" fill="none"></path></g></g><g stroke-linecap="round"><g transform="translate(775.0081581498711 1145.3504915025899) rotate(0 -26.762322164726356 24.207455939052807)"><path d="M0.74 -0.9 C-8.17 7.14, -45.39 39.74, -54.26 48.3 M-0.33 1.25 C-8.78 9.39, -43.21 41.4, -51.95 49.31" stroke="#000000" stroke-width="1" fill="none"></path></g><g transform="translate(775.0081581498711 1145.3504915025899) rotate(0 -26.762322164726356 24.207455939052807)"><path d="M-39.64 21.4 C-42.99 30.53, -42.61 35.16, -51.97 47.54 M-39.05 22.26 C-42.38 30.97, -47.29 40.64, -51.72 49.72" stroke="#000000" stroke-width="1" fill="none"></path></g><g transform="translate(775.0081581498711 1145.3504915025899) rotate(0 -26.762322164726356 24.207455939052807)"><path d="M-25.75 36.51 C-32.32 42.23, -35.15 43.37, -51.97 47.54 M-25.16 37.37 C-32.96 41.07, -42.47 45.72, -51.72 49.72" stroke="#000000" stroke-width="1" fill="none"></path></g></g><g transform="translate(574.9289772727273 1332.2036520139534) rotate(0 88.49999999999994 12.5)"><text x="0" y="18" font-family="Virgil, Segoe UI Emoji" font-size="20px" fill="#000000" text-anchor="start" style="white-space: pre;" direction="ltr">Verification result</text></g><g stroke-linecap="round"><g transform="translate(634.9538352272726 1282.1660099684989) rotate(0 1.5910972718826315 21.64141370944344)"><path d="M-1.1 0.98 C-0.52 7.92, 3.63 34.64, 4.28 41.69 M0.52 0.44 C0.91 7.53, 2.77 36.02, 3.54 42.84" stroke="#000000" stroke-width="1" fill="none"></path></g><g transform="translate(634.9538352272726 1282.1660099684989) rotate(0 1.5910972718826315 21.64141370944344)"><path d="M-3.78 24.18 C-3.36 28.9, 2.52 37.12, 2.96 42.79 M-6.24 23.25 C-2.81 31.01, 1.27 37.94, 3.2 42.63" stroke="#000000" stroke-width="1" fill="none"></path></g><g transform="translate(634.9538352272726 1282.1660099684989) rotate(0 1.5910972718826315 21.64141370944344)"><path d="M10.74 22.94 C5.84 27.98, 6.41 36.66, 2.96 42.79 M8.28 22.02 C6.11 30.31, 4.6 37.71, 3.2 42.63" stroke="#000000" stroke-width="1" fill="none"></path></g></g><g stroke-linecap="round" transform="translate(883.6967329545456 1213.414012454294) rotate(0 182.97940340909076 22.13245738636374)"><path d="M-1.14 1.2 C125.78 -0.09, 252.34 -0.05, 366.7 0.04 M-0.04 0.53 C81.69 -1.28, 163.62 -1.69, 365.85 -0.53 M364.93 0.51 C366.88 12.04, 365.38 26.6, 366.31 46.09 M365.78 -0.98 C366.27 9.59, 366.64 18.35, 365.39 43.5 M365.12 44.1 C231.84 44.16, 100.92 46.29, -1.2 44.77 M365.97 43.66 C284.56 46.68, 202.42 46.52, -0.47 44.7 M1 46.26 C1.95 29.78, 0.27 13, 0.8 -1.35 M0 44.71 C-0.52 35.34, -0.12 27.06, -0.84 -0.45" stroke="#862e9c" stroke-width="1" fill="none"></path></g><g transform="translate(897.9971590909091 1224.7407169997484) rotate(0 170.5 12.5)"><text x="0" y="18" font-family="Virgil, Segoe UI Emoji" font-size="20px" fill="#862e9c" text-anchor="start" style="white-space: pre;" direction="ltr">snarkjs zkey export solidityverifier</text></g><g stroke-linecap="round"><g transform="translate(702.4218750000001 881.5228103946349) rotate(0 193.73665927840852 160.18156210036273)"><path d="M-0.18 -0.7 C59.4 5.2, 295.47 -18.01, 357.68 35.39 C419.89 88.79, 370.43 272.31, 373.07 319.72 M-1.74 1.54 C57.63 7.55, 294.07 -16.97, 356.43 36.3 C418.8 89.58, 369.51 273.72, 372.48 321.19" stroke="#862e9c" stroke-width="1" fill="none"></path></g><g transform="translate(702.4218750000001 881.5228103946349) rotate(0 193.73665927840852 160.18156210036273)"><path d="M363.81 291.19 C365.33 301.79, 370.16 311.7, 373.15 319.67 M364.66 292.02 C367 300.88, 369.58 310.1, 371.65 320.71" stroke="#862e9c" stroke-width="1" fill="none"></path></g><g transform="translate(702.4218750000001 881.5228103946349) rotate(0 193.73665927840852 160.18156210036273)"><path d="M384.24 293.17 C379.36 303.11, 377.8 312.41, 373.15 319.67 M385.09 294 C380.8 302.18, 376.75 310.76, 371.65 320.71" stroke="#862e9c" stroke-width="1" fill="none"></path></g></g><g transform="translate(887.5355113636361 1378.0022138037257) rotate(0 51 12.5)"><text x="0" y="18" font-family="Virgil, Segoe UI Emoji" font-size="20px" fill="#862e9c" text-anchor="start" style="white-space: pre;" direction="ltr">verifier.sol</text></g><g stroke-linecap="round"><g transform="translate(1014.3678977272726 1267.3218160764532) rotate(0 -40.230479828883745 49.62177195656625)"><path d="M0.68 0.51 C-12.86 17.18, -66.91 83.24, -80.4 99.5 M-0.42 -0.26 C-14.16 16.11, -67.75 81.2, -81.14 97.74" stroke="#862e9c" stroke-width="1" fill="none"></path></g><g transform="translate(1014.3678977272726 1267.3218160764532) rotate(0 -40.230479828883745 49.62177195656625)"><path d="M-70.38 70.09 C-73.88 80.85, -79.9 90.24, -81.35 99.1 M-71.08 70.36 C-76.05 79.21, -78.95 91.45, -80.52 98.69" stroke="#862e9c" stroke-width="1" fill="none"></path></g><g transform="translate(1014.3678977272726 1267.3218160764532) rotate(0 -40.230479828883745 49.62177195656625)"><path d="M-54.5 83.08 C-63.81 89.12, -75.7 93.72, -81.35 99.1 M-55.19 83.35 C-66.1 87.2, -75.07 94.48, -80.52 98.69" stroke="#862e9c" stroke-width="1" fill="none"></path></g></g><g stroke-linecap="round" transform="translate(57.39346590909088 1251.8885774400894) rotate(0 184.6821732954544 22.981178977272748)"><path d="M1.2 0.41 C103.41 2.1, 208.16 2.47, 369.64 -0.87 M-0.16 -0.55 C78.83 -1.24, 158.4 -0.89, 369.31 -0.22 M370.19 -0.26 C369.23 8.99, 369.27 22.42, 368.21 46.11 M368.46 -0.92 C368.41 11.9, 368.48 22.43, 368.78 46.09 M370.36 45.41 C234.68 43.24, 99.17 42.92, -0.8 44.99 M369.3 45.56 C227.22 47.54, 86.02 46.75, 0.33 45.7 M0.53 45.63 C2.04 34.63, 0.09 23.74, 1.6 1.87 M-0.51 45.4 C0.52 32.43, 0.92 18.05, 0.17 -0.74" stroke="#862e9c" stroke-width="1" fill="none"></path></g><g transform="translate(64.30042613636374 1261.787725167362) rotate(0 178 12.5)"><text x="0" y="18" font-family="Virgil, Segoe UI Emoji" font-size="20px" fill="#862e9c" text-anchor="start" style="white-space: pre;" direction="ltr">snarkjs zkey export soliditycalldata</text></g><g stroke-linecap="round"><g transform="translate(151.86789772727275 1070.967723391794) rotate(0 -30.010665097883418 84.43034502533692)"><path d="M0.75 -0.51 C-8.6 8.31, -45.76 24.42, -55.39 52.73 C-65.03 81.04, -56.63 149.89, -57.06 169.34 M-0.32 -1.82 C-9.88 7.19, -46.82 25.31, -56.34 54.06 C-65.86 82.81, -57.2 151.25, -57.45 170.68" stroke="#862e9c" stroke-width="1" fill="none"></path></g><g transform="translate(151.86789772727275 1070.967723391794) rotate(0 -30.010665097883418 84.43034502533692)"><path d="M-69.98 143.06 C-65.66 154.08, -60.76 162.45, -57.18 170.26 M-68.59 143.39 C-66.14 149.91, -63.52 156.05, -56.89 169.84" stroke="#862e9c" stroke-width="1" fill="none"></path></g><g transform="translate(151.86789772727275 1070.967723391794) rotate(0 -30.010665097883418 84.43034502533692)"><path d="M-49.49 142.01 C-52.5 153.53, -54.92 162.28, -57.18 170.26 M-48.09 142.34 C-50.58 149.24, -52.88 155.63, -56.89 169.84" stroke="#862e9c" stroke-width="1" fill="none"></path></g></g><g stroke-linecap="round"><g transform="translate(347.84446022727275 1062.4094847554304) rotate(0 -64.52057295376642 90.59221924858332)"><path d="M0.03 -0.86 C-19.35 18.19, -95.81 82.79, -116.78 113.27 C-137.74 143.76, -124.13 170.76, -125.75 182.04 M-1.41 1.31 C-20.85 20.09, -96.61 81.7, -117.41 111.47 C-138.21 141.24, -124.74 168.2, -126.22 179.91" stroke="#862e9c" stroke-width="1" fill="none"></path></g><g transform="translate(347.84446022727275 1062.4094847554304) rotate(0 -64.52057295376642 90.59221924858332)"><path d="M-140.56 153.83 C-135.01 160.75, -132 166.58, -127.29 181.16 M-138.31 153.54 C-133.62 163.4, -129.89 174.51, -125.39 180.47" stroke="#862e9c" stroke-width="1" fill="none"></path></g><g transform="translate(347.84446022727275 1062.4094847554304) rotate(0 -64.52057295376642 90.59221924858332)"><path d="M-120.14 151.87 C-119.89 159.3, -122.17 165.64, -127.29 181.16 M-117.88 151.58 C-120.97 162.12, -125.04 173.97, -125.39 180.47" stroke="#862e9c" stroke-width="1" fill="none"></path></g></g><g stroke-linecap="round"><g transform="translate(205.23792613636363 1305.3959904372487) rotate(0 323.29261358729025 47.26377483991246)"><path d="M-0.44 0.52 C4.82 15.07, -81.24 73.08, 31.1 87.34 C143.44 101.59, 566.57 86.27, 673.6 86.05 M1.53 -0.25 C7.18 14.46, -78.65 74.12, 33.19 88.66 C145.04 103.2, 565.92 87.32, 672.58 87" stroke="#862e9c" stroke-width="1" fill="none"></path></g><g transform="translate(205.23792613636363 1305.3959904372487) rotate(0 323.29261358729025 47.26377483991246)"><path d="M645.48 95.86 C651.16 94.31, 657.93 91.04, 671.39 88.84 M644.71 98.3 C650.67 95.59, 657.81 91.87, 672.69 86.7" stroke="#862e9c" stroke-width="1" fill="none"></path></g><g transform="translate(205.23792613636363 1305.3959904372487) rotate(0 323.29261358729025 47.26377483991246)"><path d="M645.07 75.34 C650.87 79.11, 657.74 81.16, 671.39 88.84 M644.3 77.78 C650.53 79.97, 657.77 81.14, 672.69 86.7" stroke="#862e9c" stroke-width="1" fill="none"></path></g></g><g transform="translate(879.9786931818181 1467.3843160764534) rotate(0 88.5 12.5)"><text x="0" y="18" font-family="Virgil, Segoe UI Emoji" font-size="20px" fill="#862e9c" text-anchor="start" style="white-space: pre;" direction="ltr">verification result</text></g><g stroke-linecap="round"><g transform="translate(936.9829679242281 1413.3765035764534) rotate(0 -1.0600181747996658 21.727354516304104)"><path d="M0.9 -0.47 C0.54 7.23, -2.32 37.59, -3.02 45.21 M-0.09 -1.76 C0.01 5.69, -0.56 35.97, -0.7 43.48" stroke="#862e9c" stroke-width="1" fill="none"></path></g><g transform="translate(936.9829679242281 1413.3765035764534) rotate(0 -1.0600181747996658 21.727354516304104)"><path d="M-8.71 21.17 C-5.22 25.46, -3.54 32.65, 1.12 44.68 M-8.62 21.63 C-6.29 28.58, -3.52 35.27, -1.44 44.06" stroke="#862e9c" stroke-width="1" fill="none"></path></g><g transform="translate(936.9829679242281 1413.3765035764534) rotate(0 -1.0600181747996658 21.727354516304104)"><path d="M6.52 21.44 C6.54 25.79, 4.75 32.92, 1.12 44.68 M6.61 21.9 C4.54 28.88, 2.91 35.48, -1.44 44.06" stroke="#862e9c" stroke-width="1" fill="none"></path></g></g><g transform="translate(284.9424982278657 142.32819632381347) rotate(0 33 12.5)"><text x="0" y="18" font-family="Virgil, Segoe UI Emoji" font-size="20px" fill="#364fc7" text-anchor="start" style="white-space: pre;" direction="ltr">--wasm</text></g><g transform="translate(620.7379527733202 158.51427586926815) rotate(0 26 12.5)"><text x="0" y="18" font-family="Virgil, Segoe UI Emoji" font-size="20px" fill="#364fc7" text-anchor="start" style="white-space: pre;" direction="ltr">--r1cs</text></g></svg>